{
  "accessors": [
    {
      "bufferView": 2,
      "componentType": 5126,
      "count": 38703,
      "max": [
        86.766502380371094,
        73.446701049804688,
        146.94279479980469
      ],
      "min": [
        -4.6055002212524414,
        -65.189002990722656,
        89.953903198242188
      ],
      "type": "VEC3"
    },
    {
      "bufferView": 2,
      "byteOffset": 464436,
      "componentType": 5126,
      "count": 38703,
      "max": [
        0.99999475479125977,
        0.99999713897705078,
        0.99967151880264282
      ],
      "min": [
        -0.99995768070220947,
        -0.99999213218688965,
        -0.99999964237213135
      ],
      "type": "VEC3"
    },
    {
      "bufferView": 3,
      "componentType": 5126,
      "count": 38703,
      "max": [
        0.99995434284210205,
        0.99999940395355225,
        0.99997740983963013,
        1
      ],
      "min": [
        -0.99999654293060303,
        -1,
        -0.99986863136291504,
        -1
      ],
      "type": "VEC4"
    },
    {
      "bufferView": 1,
      "componentType": 5126,
      "count": 38703,
      "max": [
        0.98119997978210449,
        0.99970000982284546
      ],
      "min": [
        0.032600000500679016,
        0.02630000002682209
      ],
      "type": "VEC2"
    },
    {
      "bufferView": 0,
      "componentType": 5125,
      "count": 192780,
      "max": [
        38702
      ],
      "min": [
        0
      ],
      "type": "SCALAR"
    }
  ],
  "asset": {
    "extras": {
      "author": "Flat Hat Studio (https://sketchfab.com/XiaoMa182)",
      "license": "CC-BY-4.0 (http://creativecommons.org/licenses/by/4.0/)",
      "source": "https://sketchfab.com/models/8ecd77133be64a0d9502fae1b3a3b394",
      "title": "Butterfly"
    },
    "generator": "Sketchfab-3.18.2",
    "version": "2.0"
  },
  "bufferViews": [
    {
      "buffer": 0,
      "byteLength": 771120,
      "byteOffset": 0,
      "name": "floatBufferViews",
      "target": 34963
    },
    {
      "buffer": 0,
      "byteLength": 309624,
      "byteOffset": 771120,
      "byteStride": 8,
      "name": "floatBufferViews",
      "target": 34962
    },
    {
      "buffer": 0,
      "byteLength": 928872,
      "byteOffset": 1080744,
      "byteStride": 12,
      "name": "floatBufferViews",
      "target": 34962
    },
    {
      "buffer": 0,
      "byteLength": 619248,
      "byteOffset": 2009616,
      "byteStride": 16,
      "name": "floatBufferViews",
      "target": 34962
    }
  ],
  "buffers": [
    {
      "byteLength": 2628864,
      "uri": "scene.bin"
    }
  ],
  "images": [
    {
      "uri": "textures/wire_115115115_baseColor.jpeg"
    }
  ],
  "materials": [
    {
      "doubleSided": false,
      "emissiveFactor": [
        0,
        0,
        0
      ],
      "name": "wire_115115115",
      "pbrMetallicRoughness": {
        "baseColorFactor": [
          0.78000000000000003,
          0.78000000000000003,
          0.78000000000000003,
          1
        ],
        "baseColorTexture": {
          "index": 0,
          "texCoord": 0
        },
        "metallicFactor": 0,
        "roughnessFactor": 0.59999999999999998
      }
    }
  ],
  "meshes": [
    {
      "primitives": [
        {
          "attributes": {
            "NORMAL": 1,
            "POSITION": 0,
            "TANGENT": 2,
            "TEXCOORD_0": 3
          },
          "indices": 4,
          "material": 0,
          "mode": 4
        }
      ]
    }
  ],
  "nodes": [
    {
      "children": [
        1
      ],
      "name": "RootNode (gltf orientation matrix)",
      "rotation": [
        -0.70710678118654746,
        -0,
        -0,
        0.70710678118654757
      ]
    },
    {
      "children": [
        2
      ],
      "name": "RootNode (model correction matrix)"
    },
    {
      "children": [
        3
      ],
      "name": "output.obj.cleaner.gles"
    },
    {
      "mesh": 0,
      "name": ""
    }
  ],
  "samplers": [
    {
      "magFilter": 9729,
      "minFilter": 9987,
      "wrapS": 10497,
      "wrapT": 10497
    }
  ],
  "scene": 0,
  "scenes": [
    {
      "name": "OSG_Scene",
      "nodes": [
        0
      ]
    }
  ],
  "textures": [
    {
      "sampler": 0,
      "source": 0
    }
  ]
}

